<svg width="1024" height="1024" viewBox="0 0 1024 1024" fill="none" xmlns="http://www.w3.org/2000/svg">
<g clip-path="url(#clip0_5_90)">
<path d="M0 0H1024V1024H0V0Z" fill="black"/>
<path d="M745.831 334.95L795.983 328.207C805.171 326.992 821.697 324.242 830.415 325.198C835.759 325.799 840.837 327.857 845.088 331.148C852.208 336.598 870.751 359.749 871.505 369.625C872.01 376.192 871.459 378.933 867.301 383.864C859.07 393.632 850.475 402.906 842.011 412.454C840.972 413.625 833.386 422.187 832.695 422.672C816.708 441.778 798.216 459.806 781.963 478.795C779.182 482.041 775.914 485.703 772.871 488.701C785.451 503.193 797.86 521.051 810.211 536.027C812.5 538.799 826.134 555.981 827.024 557.587C834.077 565.962 840.451 575.125 847.58 583.496C852.556 589.137 855.705 594.422 854.722 602.284C853.95 608.442 849.148 614.643 843.066 616.237C825.486 620.84 807.265 627.82 789.685 632.079C786.023 633.537 780.67 634.966 776.804 636.119L751.718 643.502L732.921 649.177C731.014 649.753 725.347 651.588 723.61 651.838C707.69 655.95 697.637 649.338 688.758 636.712C685.113 643.404 680.612 648.859 672.864 650.965C646.981 658.005 621.009 664.761 595.049 671.5C589.484 672.945 583.864 674.7 578.159 675.31C561.888 677.421 549.953 664.486 539.133 653.746C532.267 655.11 525.015 656.852 518.098 654.776C504.922 650.817 494.698 633.809 490.875 621.454C485.391 622.87 478.654 624.438 473.452 626.345C470.344 632.474 467.653 638.946 464.974 645.278C461.341 653.86 457.049 665.647 446.988 668.652C427.087 674.598 406.917 679.955 386.915 685.647C379.238 687.906 371.547 690.115 363.843 692.276C362.098 692.768 355.026 694.789 353.5 694.921C337.206 700.558 326.21 693.641 315.837 681.07L288.83 691.344C265.037 700.393 256.93 702.007 236.884 684.736C226.704 675.967 220.724 672.771 222.485 657.085C223.63 646.888 225.373 637.132 226.865 627.214L237.326 557.841L202.68 509.407C195.748 499.887 187.087 488.713 180.776 479.014C176.937 474.954 171.19 465.452 167.517 460.635C164.933 457.246 160.097 451.151 157.98 447.783C156.383 445.277 155.12 442.573 154.227 439.739C146.042 413.222 180.835 406.618 198.563 400.75C216.074 394.953 233.636 388.786 251.26 383.388C252.638 382.69 254.863 381.971 256.432 381.56C274.45 376.867 295.807 363.543 312.181 379.357C317.725 384.711 318.739 389.218 322.276 395.728C327.347 385.786 331.783 375.153 336.705 365.101C344.054 350.093 353.966 349.241 368.754 346.299L398.695 340.458L431.783 333.939C463.616 327.728 476.302 325.477 487.349 359.703L538.027 347.943C548.182 345.587 561.516 341.863 571.759 341.508C582.33 341.141 588.814 347.491 595.748 354.548C624.624 348.797 655.411 344.616 684.554 339.764C697.764 337.564 706.313 343.762 713.7 354.2C724.563 343.011 728.598 335.551 745.831 334.95Z" fill="black"/>
<path d="M180.776 479.014C176.937 474.954 171.19 465.452 167.517 460.635C164.933 457.246 160.097 451.151 157.98 447.783C156.383 445.277 155.12 442.573 154.227 439.739C146.042 413.222 180.835 406.618 198.563 400.75C216.074 394.953 233.636 388.786 251.26 383.388L251.31 384.015C243.084 386.927 234.59 389.408 226.471 392.48C224.538 395.73 220.206 403.08 220.346 406.909C220.57 407.189 220.388 406.997 221.057 407.262C227.351 403.669 242.38 400.4 249.9 397.407L250.506 397.62L250.528 398.02C225.43 407.01 198.988 413.906 174.336 424.171C172.337 425.004 170.09 426.922 169.133 428.918C168.162 430.943 168.073 433.279 168.887 435.371C169.974 438.136 173.384 442.363 175.277 444.952L186.772 460.717C188.475 463.048 191.681 467.153 193.049 469.518L192.256 469.738C188.467 464.143 183.843 458.366 179.938 452.763C178.634 450.892 173.416 443.515 172.309 442.431C169.859 442.816 169.305 443.701 167.161 444.389C163.914 445.431 163.633 447.538 162.056 450.695C164.124 455.499 177.799 473.259 181.415 478.674L181.278 478.978L180.776 479.014Z" fill="white"/>
<path d="M823.917 410.122C828.05 409.098 853.399 377.031 858.4 372.785C863.139 368.764 866.712 380.734 863.758 383.538C862.588 385.844 862.842 384.993 863.088 387.565C854.62 396.436 842.375 411.007 833.899 420.421C832.945 421.481 833.246 421.223 832.038 422.143C832.364 422.665 832.14 422.498 832.695 422.672C816.708 441.778 798.216 459.806 781.962 478.795C779.182 482.041 775.914 485.703 772.871 488.701C785.451 503.193 797.86 521.051 810.211 536.027C812.5 538.799 826.134 555.981 827.024 557.587C834.077 565.962 840.451 575.125 847.58 583.496C852.556 589.137 855.705 594.422 854.722 602.284C853.95 608.442 849.148 614.643 843.066 616.237C825.486 620.84 807.265 627.82 789.685 632.079C786.023 633.537 780.67 634.966 776.804 636.119L751.718 643.502L732.921 649.177C731.014 649.753 725.347 651.588 723.609 651.838C707.69 655.95 697.637 649.338 688.758 636.712C685.113 643.404 680.612 648.859 672.864 650.965C646.981 658.005 621.009 664.761 595.049 671.5C589.484 672.945 583.864 674.7 578.159 675.31C561.888 677.421 549.953 664.486 539.133 653.746C532.267 655.11 525.015 656.852 518.098 654.776C504.922 650.817 494.698 633.809 490.875 621.454C485.391 622.87 478.654 624.438 473.452 626.345C470.344 632.474 467.653 638.946 464.974 645.278C461.341 653.86 457.049 665.647 446.988 668.652C427.087 674.598 406.917 679.955 386.915 685.647C379.238 687.906 371.547 690.115 363.843 692.276C362.098 692.768 355.026 694.789 353.5 694.921C337.206 700.558 326.21 693.641 315.837 681.07L288.83 691.344C265.037 700.393 256.93 702.007 236.884 684.736C226.704 675.967 220.724 672.771 222.485 657.086C223.63 646.888 225.373 637.132 226.865 627.214L237.326 557.841L202.68 509.407C195.748 499.887 187.087 488.713 180.776 479.014L181.278 478.978L181.415 478.674C177.799 473.259 164.124 455.499 162.056 450.695C163.633 447.538 163.914 445.431 167.161 444.389C169.305 443.701 169.859 442.816 172.309 442.431C173.416 443.515 178.634 450.892 179.938 452.763C183.843 458.366 188.467 464.143 192.256 469.738L193.049 469.518C197.459 474.771 203.143 482.928 207.289 488.604L229.493 518.762C234.006 524.857 238.567 530.92 243.174 536.942C244.817 539.104 251.439 547.462 252.101 549.517C254.939 558.333 250.313 577.617 248.995 586.416C246.688 602.916 244.258 619.399 241.706 635.86C240.779 641.862 237.59 659.773 237.765 665.104C240.926 669.767 257.734 682.871 263.232 683.855C269.895 685.05 311.823 665.884 322.427 662.748C325.367 669.805 331.062 674.42 336.884 679.239C339.997 680.256 342.893 682.253 346.343 681.477C350.903 680.451 355.406 679.163 359.912 677.917C370.142 675.069 380.358 672.17 390.558 669.216C401.543 666.219 412.506 663.146 423.445 659.989C429.878 658.179 436.785 656.539 442.92 653.966C445.879 652.729 448.33 646.18 449.544 643.269C453.801 633.042 458.406 622.891 462.279 612.516C474.847 610.29 490.364 605.349 503.456 602.428C504.437 608.226 504.877 615.707 506.88 621.145C509.083 627.125 515.314 635.059 520.078 639.124C524.541 641.408 527.075 641.7 532.127 640.471C537.099 639.268 541.951 638.03 546.987 637.115L547.071 637.878C547.474 642.518 549.296 644.54 553.047 647.337C558.379 651.317 565.949 658.531 572.043 660.527C575.998 661.815 589.039 657.848 593.358 656.729C603.856 654.038 614.338 651.288 624.802 648.478L653.385 640.921C661.484 638.772 671.258 637.873 675.284 629.837C677.819 624.768 676.755 599.618 679.048 596.749L679.582 597.228C684.782 604.759 703.541 635.555 710.5 637.437C713.416 638.225 716.663 638.458 719.63 637.852C723.631 637.043 727.674 635.563 731.578 634.364L753.189 627.739L806.316 611.876C816.064 608.985 827.278 606.048 836.764 602.267C837.616 601.928 838.807 599.385 838.769 598.529C838.692 596.936 837.344 595.202 836.497 593.875C832.25 588.09 827.406 582.682 823.1 576.943C811.164 561.029 798.077 545.788 786.154 529.907C779.873 523.195 771.774 511.467 765.645 504.042C762.114 499.764 755.499 491.795 752.756 487.707C765.908 474.402 779.788 456.565 792.787 444.209C793.592 442.881 800.692 435.505 802.345 433.674C809.355 425.905 816.581 417.594 823.917 410.122Z" fill="white"/>
<path d="M546.987 637.115L547.071 637.878C547.474 642.518 549.296 644.54 553.047 647.337C558.379 651.317 565.949 658.531 572.043 660.527C575.998 661.815 589.039 657.848 593.358 656.729C603.856 654.038 614.338 651.288 624.802 648.478L653.385 640.921C661.484 638.772 671.258 637.873 675.284 629.837C677.819 624.768 676.755 599.618 679.048 596.749L679.582 597.228C676.882 602.034 678.938 624.908 675.852 630.948C672.101 638.284 660.891 639.658 653.716 641.611L627.671 648.524C623.946 649.524 618.44 651.355 614.778 651.826C615.27 652.915 615.189 652.635 615.825 653.525C615.639 654.212 615.859 656.721 615.071 657.759C614.766 658.162 616.571 659.501 615.622 661.019L613.397 661.281L612.43 663.252C609.196 662.989 610.697 660.014 605.789 664.935L605.085 665.075C604.725 664.172 604.428 663.68 604.348 662.735C607.332 660.031 607.467 655.683 609.468 654.721C608.925 654.39 608.472 654.102 607.938 653.75L607.476 653.903C600.478 656.187 591.044 656.865 585.025 661.866L584.127 661.824C584.635 663.625 586.937 664.88 588.844 664.041C590.357 663.371 592.324 661.659 593.841 661.693L594.43 662.434C593.345 664.613 591.48 662.795 588.649 667.486C584.818 667.287 584.343 666.139 583.127 662.845L582.432 660.976C580.745 660.434 574.43 662.239 572.366 661.51C563.732 658.471 555.633 650.224 548.462 644.485C547.783 643.934 546.618 639.603 545.605 638.191C544.685 638.657 544.342 638.657 543.333 638.729C537.45 639.162 524.562 645.273 519.811 639.607L518.857 639.505C518.018 641.416 520.065 641.709 518.878 642.565C516.912 640.916 517.327 637.733 516.136 636.326C511.232 630.554 505.656 624.256 504.768 616.423C504.629 615.198 503.21 605.556 502.671 603.751C502.663 603.725 501.788 603.7 501.647 603.713C499.662 603.869 496.906 604.87 495.1 605.209C489.808 606.2 475.398 610.977 470.759 611.121C470.693 612.007 470.69 611.541 470.796 612.524C468.348 612.91 470.439 611.71 468.974 612.015C466.982 612.435 465.07 612.961 462.969 613.261C459.671 620.95 456.53 629.621 453.127 637.11C448.323 647.685 452.474 642.404 453.91 647.778C453.709 650.279 452.271 651.567 449.892 651.864C448.565 650.94 448.459 650.876 446.846 650.855C444.751 653 445.599 654.517 440.874 656.001C436.038 657.518 431.125 658.611 426.258 659.976L391.57 669.741C381.179 672.75 370.773 675.709 360.351 678.608C354.61 680.214 341.473 685.224 336.797 679.816L336.884 679.239C339.997 680.256 342.893 682.253 346.343 681.477C350.903 680.451 355.406 679.163 359.912 677.917C370.142 675.069 380.358 672.17 390.558 669.216C401.543 666.219 412.506 663.146 423.445 659.989C429.878 658.179 436.785 656.539 442.92 653.966C445.879 652.729 448.33 646.18 449.544 643.269C453.801 633.042 458.406 622.891 462.279 612.516C474.847 610.29 490.364 605.349 503.456 602.428C504.437 608.226 504.877 615.707 506.88 621.145C509.083 627.125 515.314 635.059 520.078 639.124C524.541 641.408 527.075 641.7 532.127 640.471C537.099 639.268 541.951 638.03 546.987 637.115Z" fill="white"/>
<path d="M752.756 487.707C765.908 474.402 779.788 456.565 792.787 444.209C792.732 446.325 764.42 475.692 760.58 480.949C761.415 481.352 760.991 481.196 762.047 481.132C760.775 482.942 757.821 489.703 757.041 490.067C756.236 489.388 755.867 488.883 754.77 488.801L754.706 489.212C757.058 491.472 758.495 494.436 760.958 496.634L761.369 496.186L760.606 494.371L761.068 493.826C763.233 494.019 763.072 495.045 763.662 497.07C765.149 497.879 766.001 497.929 767.692 498.257C767.404 499.34 767.506 498.888 766.471 499.863C765.865 499.417 766.107 499.635 765.717 499.245L765.569 500.524L764.763 500.67C763.742 499.798 763.615 499.162 763.115 497.924L762.441 498.033C762.856 501.787 786.926 527.245 786.154 529.907C779.873 523.195 771.774 511.467 765.645 504.042C762.114 499.764 755.499 491.795 752.756 487.707Z" fill="white"/>
<path d="M466.415 619.788C468.507 619.153 469.373 619.81 469.956 621.793C469.587 623.493 469.954 622.751 468.761 624.082L467.746 624.018C465.998 623.688 464.29 623.772 463.875 621.882C464.659 620.56 465.062 620.488 466.415 619.788Z" fill="white"/>
<path d="M322.276 395.728C327.347 385.786 331.783 375.153 336.705 365.101C344.054 350.093 353.966 349.241 368.754 346.299L398.695 340.458L431.783 333.939C463.616 327.728 476.302 325.477 487.349 359.704L538.027 347.943C548.182 345.587 561.516 341.863 571.759 341.508C582.33 341.142 588.814 347.491 595.748 354.548C624.624 348.797 655.411 344.616 684.554 339.764C697.764 337.564 706.313 343.762 713.7 354.2C724.563 343.011 728.598 335.551 745.831 334.95C746.106 335.01 746.382 335.078 746.662 335.129C750.324 335.797 769.65 331.477 771.023 333.035C772.922 335.183 775.058 340.615 776.033 343.489C774.796 344.791 757.465 345.712 754.681 347L755.159 347.27C753.642 347.713 747.628 348.723 745.979 348.725C734.032 348.745 730.17 356.93 722.346 365.666C715.235 373.684 707.928 381.527 700.434 389.187C701.172 380.99 704.058 366.756 699.167 360.006C692.598 350.936 683.168 354.096 673.979 355.629L648.291 359.977C632.817 362.626 617.372 364.857 601.898 367.882C590.421 370.126 591.968 375.29 590.417 385.337C589.912 388.603 589.658 392.05 589.162 395.314C588.026 386.107 587.229 374.013 584.186 365.334C582.071 359.309 572.675 354.605 566.572 356.18C555.955 358.05 545.486 360.614 534.979 363.037L473.875 377.183C473.663 365.43 470.961 342.718 454.426 344.171C448.568 344.686 442.136 346.091 436.324 347.209L403.914 353.569L375.861 358.968C351.668 363.584 354.103 361.031 343.967 383.578C339.616 393.2 335.328 402.85 331.103 412.528C328.835 417.691 325.005 425.413 323.282 430.303C315.669 417.478 310.048 402.551 301.703 390.128C296.022 381.671 282.151 387.932 274.877 390.202C266.844 392.708 258.609 395.808 250.528 398.02L250.506 397.62L249.9 397.407C242.38 400.4 227.351 403.669 221.057 407.262C220.388 406.997 220.57 407.189 220.346 406.909C220.206 403.08 224.538 395.73 226.471 392.48C234.59 389.408 243.084 386.927 251.31 384.015L251.26 383.388C252.638 382.69 254.863 381.971 256.432 381.56C274.45 376.867 295.807 363.543 312.181 379.357C317.725 384.711 318.739 389.218 322.276 395.728Z" fill="white"/>
<path d="M745.831 334.95L795.983 328.207C805.171 326.992 821.697 324.242 830.415 325.198C835.759 325.799 840.837 327.857 845.088 331.148C852.208 336.598 870.751 359.749 871.505 369.625C872.01 376.192 871.459 378.933 867.301 383.864C859.07 393.632 850.475 402.906 842.011 412.454C840.972 413.625 833.386 422.187 832.695 422.672C832.14 422.498 832.364 422.665 832.038 422.143C833.246 421.223 832.945 421.481 833.899 420.421C842.375 411.007 854.62 396.436 863.088 387.565C862.842 384.993 862.588 385.844 863.758 383.538C866.712 380.734 863.139 368.764 858.4 372.785C853.399 377.031 828.05 409.098 823.917 410.122C830.678 401.464 839.587 392.659 847.037 384.396C849.831 381.297 853.064 378.17 855.387 374.715C856.175 373.538 856.781 372.488 856.735 371.02C856.595 366.739 840.6 344.312 836.662 341.094C833.992 338.91 830.135 338.149 826.766 338.055C819.866 337.864 812.436 339.518 805.6 340.485C788.939 342.843 771.914 345.953 755.159 347.27L754.681 347C757.465 345.712 774.796 344.791 776.033 343.489C775.058 340.615 772.922 335.183 771.023 333.035C769.65 331.477 750.324 335.797 746.662 335.129C746.382 335.078 746.106 335.01 745.831 334.95Z" fill="white"/>
<path d="M560.333 376.043C561.452 375.879 560.901 375.836 561.986 376.18C562.863 378.306 565.5 402.606 566.152 407.482L577.07 483.236C581.368 509.735 585.915 536.192 590.709 562.605C592.108 570.459 593.752 578.266 594.998 586.141L526.41 605.845C524.524 595.69 523.833 584.857 521.934 574.634C520.726 568.132 520.268 561.359 518.526 554.955C512.326 556.723 505.165 558.058 498.804 559.736C479.08 564.945 458.681 569.255 438.988 574.324C432.782 589.362 423.201 607.828 417.898 622.768L412.093 624.099L344.558 643.282C350.268 628.719 358.333 611.638 364.794 597.126C375.884 571.845 387.113 546.627 398.478 521.467L432.33 446.301C439.018 431.441 445.928 414.864 453.157 400.315C462.547 397.783 474.374 395.586 483.994 393.387L560.333 376.043Z" fill="#FEFEFE"/>
<path d="M499.268 428.502C500.461 428.394 500.848 428.223 501.905 428.742C505.921 450.57 508.881 472.864 512.377 494.795C513.148 499.643 513.695 504.556 513.885 509.463C500.668 512.443 484.642 516.89 471.348 520.411C467.584 521.434 463.549 522.249 459.722 523.087C461.558 517.804 465.485 509.184 467.767 503.771L487.457 457.788C491.237 448.924 496.257 437.538 499.268 428.502Z" fill="black"/>
<path d="M811.792 355.345L816.657 354.919C804.57 369.764 787.599 387.94 774.524 402.451L708.182 476.016L760.317 541.287L779.886 565.826C784.34 571.396 789.231 577.164 793.406 582.894C767.298 588.493 740.838 595.55 714.76 601.581C711.187 595.613 706.012 588.489 702.117 582.466C691.903 566.386 681.544 550.395 671.042 534.501C665.795 526.487 660.001 518.301 655 510.222C654.305 520.448 652.838 532.403 651.787 542.711C649.727 563.339 647.401 583.937 644.807 604.505C639.263 605.467 624.488 609.871 618.169 611.545C610.099 613.63 602.042 615.775 594.006 617.979C586.25 620.14 578.647 622.476 570.7 623.836C571.581 619.602 572.226 615.41 572.904 611.147C575.383 610.642 577.752 609.968 580.168 609.222C592.481 605.412 605.056 602.229 617.309 598.266C613.863 578.079 610.167 557.939 606.221 537.841C604.496 529.241 602.83 520.63 601.216 512.008C599.957 505.365 597.465 494.785 597.956 488.284C600.58 453.436 608.514 418.009 612.138 383.353C633.177 380.177 655.619 375.703 676.458 373.04L659.806 458.528C669.232 448.935 679.078 437.717 688.169 427.752L723.999 388.861C731.217 380.98 739.173 371.842 746.645 364.394C768.103 361.247 790.308 358.085 811.792 355.345Z" fill="#0177AA"/>
<path d="M442.365 362.54L443.1 362.498C443.201 362.669 443.302 362.841 443.403 363.011C438.769 371.301 428.967 387.923 424.712 395.297C406.058 427.14 387.588 459.089 369.301 491.143C349.137 526.334 348.664 520.42 345.737 561.554C344.434 578.792 343.325 596.041 342.411 613.304C323.752 620.513 305.149 627.863 286.602 635.356C279.715 638.119 272.807 640.514 265.988 643.489C267.313 632.152 269.342 620.747 271.136 609.456C273.398 595.397 275.54 581.318 277.561 567.217C279.022 557.426 281.509 546.14 281.513 536.447C278.249 531.564 270.995 522.759 267.081 517.631C253.282 499.749 239.62 481.762 226.096 463.67C219.53 454.971 208.532 441.084 202.876 432.47C228.786 424.277 254.691 415.102 280.685 406.841C286.21 417.786 291.485 429.31 296.89 440.383C304.658 456.029 312.312 471.733 319.848 487.492C321.22 483.15 324.393 476.581 326.348 472.26L337.496 447.524L357.434 402.906C361.148 394.624 365.195 384.953 369.326 376.978C392.606 373.523 418.409 366.36 442.365 362.54Z" fill="#FFEDA3"/>
</g>
<defs>
<clipPath id="clip0_5_90">
<rect width="1024" height="1024" fill="white"/>
</clipPath>
</defs>
</svg>
