<svg xmlns="http://www.w3.org/2000/svg" width="1162" height="603" fill="none" viewBox="0 0 1162 603"><path fill="#000" d="M958.384 16.0848L1039.46 5.18371C1054.31 3.22 1081.03 -1.22538 1095.12 0.320371C1103.76 1.29126 1111.97 4.61915 1118.84 9.93953C1130.36 18.7502 1160.33 56.1764 1161.55 72.1416C1162.37 82.7577 1161.48 87.1888 1154.75 95.1608C1141.45 110.952 1127.55 125.945 1113.87 141.38C1112.19 143.273 1099.93 157.114 1098.81 157.898C1072.97 188.786 1043.07 217.931 1016.79 248.628C1012.3 253.877 1007.02 259.796 1002.1 264.642C1022.43 288.07 1042.5 316.94 1062.46 341.151C1066.16 345.632 1088.2 373.409 1089.64 376.005C1101.04 389.544 1111.35 404.358 1122.87 417.89C1130.92 427.01 1136.01 435.554 1134.42 448.264C1133.17 458.219 1125.41 468.243 1115.58 470.82C1087.16 478.261 1057.7 489.545 1029.28 496.431C1023.36 498.788 1014.7 501.098 1008.46 502.961L967.901 514.897L937.513 524.071C934.43 525.003 925.269 527.97 922.46 528.374C896.725 535.02 880.472 524.332 866.118 503.92C860.226 514.739 852.949 523.558 840.424 526.963C798.58 538.344 756.593 549.265 714.626 560.16C705.63 562.496 696.544 565.333 687.322 566.319C661.018 569.731 641.724 548.82 624.231 531.458C613.131 533.664 601.408 536.48 590.226 533.123C568.925 526.723 552.396 499.227 546.217 479.254C537.351 481.543 526.46 484.078 518.05 487.161C513.025 497.069 508.674 507.531 504.343 517.768C498.472 531.643 491.533 550.697 475.267 555.555C443.095 565.168 410.488 573.829 378.153 583.031C365.742 586.683 353.309 590.252 340.853 593.747C338.032 594.542 326.6 597.81 324.133 598.022C297.791 607.135 280.015 595.953 263.246 575.631L219.587 592.239C181.122 606.868 168.016 609.478 135.608 581.558C119.152 567.381 109.484 562.215 112.331 536.857C114.183 520.371 117 504.599 119.412 488.566L136.324 376.416L80.3133 298.116C69.1073 282.726 55.1064 264.663 44.9035 248.983C38.6972 242.419 29.4069 227.058 23.4692 219.271C19.2917 213.791 11.4739 203.938 8.05073 198.494C5.4683 194.443 3.42786 190.071 1.98351 185.489C-11.2486 142.621 44.9981 131.945 73.6575 122.459C101.967 113.088 130.358 103.118 158.849 94.392C161.077 93.2621 164.675 92.1001 167.21 91.4362C196.339 83.8485 230.865 62.3094 257.336 87.8753C266.298 96.5304 267.937 103.816 273.656 114.34C281.853 98.2673 289.025 81.0777 296.982 64.8281C308.863 40.5661 324.885 39.1882 348.793 34.4317L397.196 24.9893L450.686 14.4514C502.148 4.40946 522.657 0.771192 540.515 56.1024L622.443 37.0895C638.86 33.282 660.415 27.2614 676.976 26.6872C694.064 26.0946 704.547 36.3598 715.757 47.7673C762.438 38.4702 812.209 31.7109 859.321 23.867C880.678 20.3117 894.498 30.3317 906.441 47.2048C924.002 29.1175 930.524 17.0564 958.384 16.0848Z"/><path fill="#fff" d="M44.9035 248.983C38.6972 242.419 29.4069 227.058 23.4692 219.271C19.2917 213.791 11.4739 203.938 8.05073 198.494C5.4683 194.443 3.42786 190.071 1.98351 185.489C-11.2486 142.621 44.9981 131.945 73.6575 122.459C101.967 113.088 130.358 103.118 158.849 94.3921L158.929 95.4048C145.632 100.112 131.9 104.123 118.774 109.09C115.65 114.344 108.647 126.226 108.873 132.416C109.236 132.869 108.941 132.558 110.022 132.987C120.197 127.178 144.494 121.893 156.651 117.054L157.63 117.4L157.666 118.046C117.092 132.579 74.3447 143.727 34.4923 160.322C31.261 161.668 27.6282 164.769 26.0804 167.997C24.5114 171.269 24.3681 175.046 25.6837 178.428C27.4411 182.898 32.9534 189.732 36.0134 193.917L54.5973 219.403C57.3504 223.171 62.533 229.808 64.7434 233.63L63.4628 233.987C57.3373 224.942 49.8614 215.602 43.5482 206.544C41.4399 203.519 33.0048 191.594 31.2151 189.841C27.2541 190.464 26.3593 191.895 22.893 193.007C17.6438 194.691 17.1889 198.098 14.64 203.202C17.983 210.967 40.0908 239.679 45.936 248.432L45.7154 248.924L44.9035 248.983Z"/><path fill="#fff" d="M1084.62 137.61C1091.3 135.955 1132.28 84.1144 1140.37 77.2511C1148.03 70.7501 1153.8 90.1008 1149.03 94.6346C1147.14 98.3612 1147.55 96.9868 1147.94 101.144C1134.25 115.484 1114.46 139.041 1100.76 154.26C1099.21 155.973 1099.7 155.555 1097.75 157.043C1098.28 157.888 1097.91 157.617 1098.81 157.898C1072.97 188.786 1043.07 217.931 1016.79 248.628C1012.3 253.877 1007.02 259.796 1002.1 264.642C1022.43 288.07 1042.5 316.94 1062.46 341.151C1066.16 345.632 1088.2 373.409 1089.64 376.005C1101.04 389.544 1111.35 404.358 1122.87 417.89C1130.92 427.01 1136.01 435.554 1134.42 448.264C1133.17 458.219 1125.41 468.243 1115.58 470.82C1087.16 478.261 1057.7 489.545 1029.28 496.431C1023.36 498.788 1014.7 501.098 1008.46 502.961L967.901 514.897L937.513 524.071C934.43 525.003 925.269 527.97 922.46 528.374C896.725 535.02 880.472 524.332 866.118 503.92C860.225 514.739 852.949 523.558 840.424 526.963C798.58 538.344 756.593 549.265 714.626 560.159C705.63 562.496 696.544 565.333 687.322 566.319C661.018 569.731 641.724 548.82 624.231 531.458C613.131 533.664 601.408 536.48 590.226 533.123C568.925 526.723 552.396 499.227 546.216 479.254C537.351 481.543 526.459 484.078 518.05 487.161C513.025 497.069 508.674 507.531 504.343 517.768C498.471 531.643 491.533 550.697 475.267 555.555C443.095 565.168 410.488 573.829 378.153 583.031C365.742 586.683 353.309 590.252 340.853 593.747C338.032 594.542 326.6 597.81 324.133 598.022C297.791 607.135 280.015 595.953 263.246 575.631L219.587 592.239C181.122 606.868 168.016 609.478 135.608 581.558C119.152 567.381 109.484 562.215 112.331 536.857C114.183 520.371 117 504.599 119.412 488.566L136.323 376.416L80.3133 298.116C69.1072 282.726 55.1064 264.663 44.9035 248.983L45.7154 248.924L45.936 248.432C40.0908 239.679 17.983 210.967 14.64 203.202C17.1889 198.098 17.6438 194.691 22.893 193.007C26.3593 191.895 27.2541 190.464 31.2151 189.841C33.0048 191.594 41.4399 203.519 43.5482 206.544C49.8614 215.602 57.3373 224.942 63.4628 233.987L64.7434 233.63C71.8726 242.124 81.0628 255.31 87.7645 264.486L123.661 313.239C130.957 323.093 138.329 332.894 145.777 342.631C148.433 346.125 159.138 359.637 160.209 362.96C164.797 377.211 157.318 408.387 155.187 422.611C151.458 449.285 147.53 475.931 143.405 502.543C141.906 512.245 136.75 541.201 137.033 549.82C142.143 557.357 169.315 578.543 178.204 580.132C188.975 582.065 256.757 551.081 273.9 546.011C278.653 557.419 287.859 564.88 297.271 572.671C302.304 574.315 306.985 577.542 312.563 576.289C319.935 574.63 327.214 572.547 334.498 570.533C351.037 565.929 367.552 561.242 384.042 556.466C401.8 551.622 419.522 546.655 437.207 541.55C447.607 538.625 458.773 535.973 468.692 531.814C473.475 529.813 477.437 519.227 479.399 514.52C486.282 497.987 493.727 481.577 499.987 464.804C520.305 461.207 545.389 453.218 566.555 448.497C568.141 457.87 568.852 469.963 572.091 478.754C575.652 488.422 585.724 501.248 593.426 507.819C600.641 511.512 604.738 511.985 612.905 509.998C620.942 508.052 628.787 506.051 636.927 504.571L637.064 505.805C637.715 513.307 640.662 516.576 646.725 521.098C655.345 527.532 667.582 539.193 677.435 542.42C683.827 544.503 704.91 538.09 711.892 536.281C728.864 531.93 745.808 527.484 762.725 522.941L808.933 510.724C822.027 507.25 837.827 505.798 844.336 492.807C848.434 484.612 846.714 443.954 850.421 439.315L851.284 440.09C859.691 452.265 890.017 502.05 901.267 505.092C905.981 506.367 911.23 506.743 916.026 505.764C922.494 504.455 929.031 502.064 935.341 500.125L970.278 489.415L1056.16 463.769C1071.92 459.096 1090.05 454.348 1105.39 448.236C1106.76 447.688 1108.69 443.577 1108.63 442.193C1108.51 439.617 1106.33 436.815 1104.96 434.67C1098.09 425.317 1090.26 416.574 1083.3 407.297C1064 381.569 1042.84 356.93 1023.57 331.257C1013.42 320.407 1000.32 301.447 990.415 289.444C984.708 282.527 974.012 269.645 969.579 263.035C990.84 241.526 1013.28 212.691 1034.29 192.716C1035.6 190.569 1047.07 178.644 1049.74 175.685C1061.08 163.125 1072.76 149.69 1084.62 137.61Z"/><path fill="#fff" d="M636.927 504.571L637.064 505.805C637.715 513.307 640.662 516.576 646.725 521.098C655.345 527.532 667.582 539.193 677.435 542.42C683.827 544.503 704.91 538.09 711.892 536.281C728.864 531.93 745.808 527.484 762.725 522.941L808.933 510.724C822.027 507.25 837.827 505.798 844.336 492.807C848.434 484.612 846.714 443.954 850.421 439.315L851.284 440.09C846.919 447.86 850.243 484.838 845.254 494.602C839.191 506.462 821.068 508.682 809.468 511.841L767.364 523.016C761.341 524.633 752.441 527.593 746.521 528.354C747.316 530.115 747.186 529.662 748.213 531.101C747.912 532.211 748.268 536.268 746.994 537.946C746.5 538.597 749.419 540.762 747.884 543.215L744.287 543.64L742.725 546.826C737.497 546.401 739.923 541.591 731.988 549.546L730.851 549.772C730.269 548.313 729.789 547.518 729.659 545.99C734.482 541.619 734.702 534.589 737.936 533.033C737.059 532.499 736.326 532.033 735.462 531.464L734.715 531.711C723.403 535.404 708.151 536.5 698.422 544.586L696.969 544.517C697.791 547.429 701.512 549.457 704.595 548.1C707.041 547.018 710.22 544.25 712.673 544.305L713.626 545.504C711.872 549.025 708.857 546.086 704.28 553.671C698.086 553.349 697.319 551.492 695.352 546.168L694.228 543.147C691.501 542.27 681.292 545.188 677.956 544.01C663.999 539.097 650.905 525.764 639.312 516.487C638.215 515.596 636.331 508.593 634.694 506.312C633.207 507.065 632.652 507.065 631.021 507.182C621.511 507.881 600.675 517.761 592.994 508.6L591.452 508.436C590.096 511.526 593.405 511.999 591.487 513.383C588.307 510.717 588.979 505.572 587.054 503.297C579.126 493.965 570.112 483.783 568.675 471.121C568.45 469.141 566.158 453.553 565.286 450.634C565.273 450.593 563.858 450.552 563.63 450.573C560.422 450.826 555.966 452.443 553.046 452.992C544.491 454.595 521.196 462.317 513.696 462.55C513.59 463.982 513.585 463.228 513.756 464.818C509.799 465.441 513.179 463.502 510.811 463.995C507.59 464.674 504.499 465.523 501.103 466.01C495.771 478.439 490.693 492.457 485.191 504.564C477.425 521.66 484.136 513.122 486.458 521.81C486.134 525.853 483.809 527.936 479.963 528.415C477.817 526.922 477.646 526.819 475.037 526.785C471.65 530.252 473.023 532.705 465.383 535.103C457.565 537.556 449.623 539.323 441.754 541.53L385.678 557.316C368.88 562.181 352.056 566.963 335.208 571.65C325.927 574.247 304.69 582.345 297.13 573.603L297.271 572.671C302.304 574.315 306.985 577.542 312.563 576.289C319.935 574.63 327.214 572.547 334.498 570.533C351.037 565.929 367.552 561.242 384.042 556.466C401.8 551.622 419.522 546.655 437.207 541.55C447.607 538.625 458.773 535.973 468.692 531.814C473.475 529.813 477.437 519.227 479.399 514.52C486.282 497.987 493.727 481.577 499.987 464.804C520.305 461.207 545.389 453.218 566.555 448.497C568.141 457.87 568.852 469.963 572.091 478.754C575.652 488.422 585.724 501.248 593.426 507.819C600.641 511.512 604.738 511.985 612.905 509.998C620.942 508.052 628.787 506.051 636.927 504.571Z"/><path fill="#fff" d="M969.579 263.035C990.84 241.526 1013.28 212.691 1034.29 192.716C1034.2 196.137 988.435 243.612 982.228 252.11C983.577 252.762 982.892 252.51 984.598 252.406C982.543 255.333 977.767 266.262 976.506 266.851C975.205 265.754 974.608 264.937 972.834 264.805L972.731 265.468C976.534 269.122 978.857 273.914 982.837 277.467L983.502 276.743L982.269 273.808L983.015 272.928C986.517 273.24 986.256 274.898 987.209 278.171C989.614 279.479 990.991 279.56 993.725 280.091C993.259 281.843 993.423 281.111 991.751 282.688C990.772 281.966 991.162 282.319 990.532 281.688L990.292 283.756L988.99 283.991C987.339 282.583 987.133 281.554 986.325 279.553L985.236 279.729C985.907 285.797 1024.82 326.954 1023.57 331.257C1013.42 320.407 1000.32 301.447 990.415 289.444C984.708 282.527 974.012 269.645 969.579 263.035Z"/><path fill="#fff" d="M506.673 476.561C510.056 475.533 511.456 476.596 512.398 479.802C511.802 482.55 512.394 481.351 510.466 483.502L508.825 483.399C506 482.865 503.238 483.002 502.568 479.946C503.834 477.808 504.486 477.692 506.673 476.561Z"/><path fill="#fff" d="M273.656 114.34C281.853 98.2675 289.025 81.0778 296.982 64.8282C308.863 40.5662 324.885 39.1884 348.793 34.4319L397.196 24.9895L450.686 14.4515C502.148 4.40962 522.657 0.771349 540.515 56.1026L622.443 37.0897C638.859 33.2822 660.415 27.2616 676.976 26.6874C694.064 26.0947 704.547 36.36 715.757 47.7674C762.437 38.4703 812.209 31.7111 859.321 23.8672C880.678 20.3118 894.498 30.3318 906.441 47.2049C924.002 29.1177 930.524 17.0566 958.384 16.085C958.829 16.1816 959.274 16.2926 959.726 16.3748C965.646 17.4546 996.89 10.4707 999.11 12.9894C1002.18 16.4625 1005.63 25.243 1007.21 29.8899C1005.21 31.9947 977.192 33.4829 972.69 35.5652L973.464 36.0016C971.011 36.7183 961.289 38.3504 958.623 38.3545C939.308 38.3874 933.066 51.6188 920.418 65.7409C908.921 78.703 897.108 91.3822 884.995 103.767C886.187 90.5154 890.853 67.5032 882.946 56.5911C872.326 41.9291 857.081 47.0377 842.226 49.516L800.698 56.5438C775.682 60.8275 750.714 64.4343 725.698 69.3244C707.144 72.9517 709.645 81.2992 707.137 97.5426C706.322 102.823 705.911 108.395 705.109 113.672C703.273 98.7868 701.985 79.2354 697.065 65.2051C693.646 55.4647 678.456 47.8599 668.589 50.4061C651.426 53.4297 634.502 57.5743 617.516 61.4914L518.734 84.3598C518.391 65.3593 514.022 28.6436 487.292 30.993C477.822 31.8248 467.424 34.0961 458.028 35.9029L405.634 46.1847L360.282 54.9131C321.172 62.376 325.108 58.2478 308.721 94.6991C301.687 110.254 294.755 125.854 287.925 141.499C284.258 149.846 278.067 162.329 275.281 170.235C262.974 149.503 253.888 125.37 240.397 105.287C231.212 91.6158 208.789 101.738 197.029 105.406C184.043 109.458 170.73 114.47 157.666 118.046L157.63 117.4L156.651 117.054C144.494 121.893 120.197 127.178 110.022 132.987C108.941 132.558 109.236 132.869 108.873 132.416C108.647 126.226 115.65 114.344 118.774 109.09C131.9 104.123 145.632 100.112 158.929 95.4048L158.849 94.3921C161.077 93.2622 164.675 92.1002 167.21 91.4363C196.339 83.8487 230.865 62.3096 257.336 87.8755C266.298 96.5306 267.937 103.816 273.656 114.34Z"/><path fill="#fff" d="M958.384 16.085L1039.46 5.18371C1054.31 3.22 1081.03 -1.22538 1095.12 0.320371C1103.76 1.29126 1111.97 4.61915 1118.84 9.93953C1130.36 18.7502 1160.33 56.1764 1161.55 72.1416C1162.37 82.7577 1161.48 87.1887 1154.75 95.1607C1141.45 110.952 1127.55 125.945 1113.87 141.38C1112.19 143.273 1099.93 157.114 1098.81 157.898C1097.91 157.617 1098.28 157.888 1097.75 157.043C1099.7 155.555 1099.21 155.973 1100.76 154.26C1114.46 139.041 1134.25 115.484 1147.94 101.144C1147.55 96.9868 1147.14 98.3612 1149.03 94.6346C1153.8 90.1008 1148.03 70.7501 1140.37 77.2511C1132.28 84.1144 1091.3 135.955 1084.62 137.61C1095.55 123.613 1109.95 109.379 1122 96.0206C1126.51 91.0107 1131.74 85.9561 1135.49 80.3706C1136.77 78.4672 1137.75 76.7707 1137.67 74.3972C1137.45 67.4763 1111.59 31.221 1105.22 26.0171C1100.91 22.4878 1094.67 21.2565 1089.22 21.1058C1078.07 20.7968 1066.06 23.4703 1055.01 25.0339C1028.07 28.8462 1000.55 33.8735 973.464 36.0016L972.69 35.5652C977.192 33.4829 1005.21 31.9947 1007.21 29.8899C1005.63 25.243 1002.18 16.4625 999.11 12.9894C996.89 10.4707 965.646 17.4546 959.726 16.3748C959.274 16.2926 958.829 16.1816 958.384 16.085Z"/><path fill="#FEFEFE" d="M658.503 82.5175C660.312 82.2523 659.422 82.1824 661.176 82.7388C662.594 86.1763 666.856 125.46 667.911 133.342L685.561 255.808C692.509 298.647 699.861 341.418 707.61 384.118C709.871 396.814 712.529 409.435 714.544 422.166L603.662 454.019C600.613 437.603 599.496 420.09 596.427 403.563C594.474 393.053 593.734 382.104 590.918 371.751C580.894 374.608 569.317 376.766 559.034 379.479C527.147 387.9 494.171 394.868 462.335 403.063C452.301 427.373 436.813 457.226 428.24 481.378L418.856 483.53L309.677 514.541C318.907 490.998 331.945 463.386 342.392 439.925C360.32 399.055 378.471 358.287 396.844 317.612L451.571 196.098C462.383 172.075 473.553 145.275 485.241 121.755C500.42 117.662 519.54 114.112 535.093 110.556L658.503 82.5175Z"/><path fill="#000" d="M559.784 167.324C561.712 167.149 562.339 166.872 564.047 167.711C570.54 202.998 575.325 239.041 580.976 274.494C582.223 282.331 583.107 290.274 583.415 298.207C562.048 303.023 536.14 310.214 514.649 315.905C508.563 317.559 502.04 318.876 495.854 320.232C498.821 311.69 505.17 297.755 508.859 289.004L540.691 214.668C546.802 200.339 554.917 181.932 559.784 167.324Z"/><path fill="#0177AA" d="M1065.02 49.0565L1072.88 48.3687C1053.34 72.3662 1025.91 101.751 1004.77 125.21L897.52 244.137L981.803 349.654L1013.44 389.326C1020.64 398.329 1028.55 407.654 1035.29 416.918C993.088 425.969 950.312 437.377 908.153 447.127C902.377 437.48 894.011 425.962 887.715 416.226C871.202 390.23 854.456 364.378 837.478 338.684C828.995 325.728 819.629 312.494 811.544 299.435C810.42 315.965 808.049 335.293 806.35 351.956C803.02 385.304 799.259 418.603 795.065 451.855C786.103 453.41 762.218 460.529 752.002 463.235C738.957 466.606 725.931 470.073 712.941 473.636C700.402 477.131 688.11 480.906 675.263 483.105C676.688 476.26 677.729 469.484 678.826 462.591C682.834 461.776 686.664 460.686 690.57 459.481C710.474 453.321 730.803 448.175 750.611 441.769C745.041 409.134 739.066 376.574 732.687 344.084C729.899 330.181 727.206 316.261 724.595 302.322C722.56 291.582 718.532 274.479 719.326 263.968C723.568 207.633 736.394 150.361 742.252 94.3349C776.264 89.2009 812.544 81.9675 846.234 77.6632L819.314 215.864C834.552 200.356 850.469 182.221 865.166 166.112L923.09 103.239C934.759 90.4993 947.619 75.7256 959.699 63.685C994.389 58.5976 1030.29 53.4869 1065.02 49.0565Z"/><path fill="#FFEDA3" d="M467.794 60.6886L468.982 60.6201C469.145 60.8969 469.308 61.1737 469.472 61.4499C461.981 74.8519 446.134 101.723 439.255 113.644C409.099 165.121 379.24 216.771 349.677 268.59C317.079 325.48 316.315 315.921 311.583 382.419C309.476 410.285 307.683 438.172 306.206 466.079C276.042 477.733 245.967 489.614 215.983 501.728C204.85 506.196 193.682 510.067 182.659 514.877C184.802 496.548 188.082 478.11 190.981 459.857C194.639 437.13 198.102 414.369 201.368 391.573C203.73 375.745 207.751 357.499 207.758 341.829C202.48 333.936 190.753 319.702 184.425 311.412C162.118 282.503 140.032 253.425 118.169 224.177C107.554 210.114 89.7735 187.664 80.6299 173.739C122.517 160.493 164.396 145.66 206.418 132.306C215.349 150 223.877 168.63 232.616 186.53C245.174 211.825 257.547 237.212 269.73 262.689C271.948 255.668 277.078 245.048 280.237 238.064L298.26 198.074L330.493 125.945C336.497 112.556 343.038 96.922 349.717 84.0284C387.352 78.4435 429.065 66.8634 467.794 60.6886Z"/></svg>